<svg width="24" height="24" viewBox="0 0 24 24" fill="none" xmlns="http://www.w3.org/2000/svg">
<g id="material-symbols-light:search">
<path id="Vector" d="M19.485 20.154L13.223 13.892C12.723 14.318 12.148 14.6477 11.498 14.881C10.848 15.1143 10.1947 15.231 9.53798 15.231C7.93665 15.231 6.58132 14.6767 5.47198 13.568C4.36265 12.4587 3.80798 11.1037 3.80798 9.50301C3.80798 7.90235 4.36198 6.54668 5.46998 5.43601C6.57865 4.32468 7.93332 3.76901 9.53398 3.76901C11.1353 3.76901 12.4913 4.32368 13.602 5.43301C14.7127 6.54235 15.268 7.89801 15.268 9.50001C15.268 10.1947 15.145 10.867 14.899 11.517C14.6523 12.167 14.329 12.723 13.929 13.185L20.191 19.446L19.485 20.154ZM9.53798 14.23C10.8647 14.23 11.985 13.7733 12.899 12.86C13.8123 11.9467 14.269 10.8263 14.269 9.49901C14.269 8.17235 13.8123 7.05235 12.899 6.13901C11.9856 5.22568 10.8656 4.76901 9.53898 4.76901C8.21232 4.76901 7.09198 5.22568 6.17798 6.13901C5.26465 7.05235 4.80798 8.17235 4.80798 9.49901C4.80798 10.8257 5.26465 11.9457 6.17798 12.859C7.09132 13.7723 8.21132 14.23 9.53798 14.23Z" fill="black"/>
</g>
</svg>
